<svg width="24" height="24" viewBox="0 0 24 24" fill="none" xmlns="http://www.w3.org/2000/svg">
<path fill-rule="evenodd" clip-rule="evenodd" d="M6.01281 11.573C6.23349 7.90584 9.2774 5 13 5C16.866 5 20 8.13401 20 12C20 15.866 16.866 19 13 19C11.0366 19 9.26352 18.193 7.99122 16.89C7.60537 16.4949 6.97225 16.4873 6.57711 16.8732C6.18196 17.259 6.17441 17.8921 6.56026 18.2873C8.19339 19.9598 10.4761 21 13 21C17.9706 21 22 16.9706 22 12C22 7.02944 17.9706 3 13 3C8.16524 3 4.22089 6.81226 4.00896 11.5947L3.20711 10.7929C2.81658 10.4024 2.18342 10.4024 1.79289 10.7929C1.40237 11.1834 1.40237 11.8166 1.79289 12.2071L4.29289 14.7071L5 15.4142L5.70711 14.7071L8.20711 12.2071C8.59763 11.8166 8.59763 11.1834 8.20711 10.7929C7.81658 10.4024 7.18342 10.4024 6.79289 10.7929L6.01281 11.573Z" fill="black"/>
</svg>
